<?xml version="1.0" encoding="utf-8"?>
<!-- Generator: Adobe Illustrator 27.4.0, SVG Export Plug-In . SVG Version: 6.00 Build 0)  -->
<svg version="1.1" id="Layer_1" xmlns="http://www.w3.org/2000/svg" xmlns:xlink="http://www.w3.org/1999/xlink" x="0px" y="0px"
	 viewBox="0 0 473 139" style="enable-background:new 0 0 473 139;" xml:space="preserve">
<style type="text/css">
	.st0{fill:#123562;}
	.st1{font-family:'Didot-Bold';}
	.st2{font-size:63px;}
	.st3{fill:#C30F23;}
	.st4{font-family:'Georgia';}
	.st5{font-size:119.7796px;}
	.st6{fill:none;stroke:#FFFFFF;stroke-width:1.9059;stroke-linecap:round;stroke-linejoin:round;stroke-miterlimit:10;}
	.st7{fill:#C30F23;stroke:#FFFFFF;stroke-width:1.9059;stroke-linecap:round;stroke-linejoin:round;stroke-miterlimit:10;}
	.st8{fill:none;stroke:#FFFFFF;stroke-width:1.4346;stroke-linecap:round;stroke-linejoin:round;stroke-miterlimit:10;}
	.st9{fill:none;stroke:#FFFFFF;stroke-width:2;stroke-linecap:round;stroke-linejoin:round;stroke-miterlimit:10;}
	.st10{fill:none;stroke:#FFFFFF;stroke-width:1.906;stroke-linecap:round;stroke-linejoin:round;stroke-miterlimit:10;}
	.st11{fill:none;stroke:#FFFFFF;stroke-width:2.0675;stroke-linecap:round;stroke-linejoin:round;stroke-miterlimit:10;}
	.st12{fill:none;stroke:#FFFFFF;stroke-width:1.792;stroke-linecap:round;stroke-linejoin:round;stroke-miterlimit:10;}
	.st13{fill:#595857;}
	.st14{font-family:'Arial-ItalicMT';}
	.st15{font-size:43px;}
</style>
<text transform="matrix(1 0 0 1 168.0381 70.056)" class="st0 st1 st2">Dong Lab</text>
<text transform="matrix(-0.6445 0 0 1 162.2463 107.319)" class="st3 st4 st5">{</text>
<g>
	<text transform="matrix(0.6445 0 0 1 9.1543 107.7472)" class="st3 st4 st5">{</text>
</g>
<path class="st6" d="M109.47,110.7c0,0,4.49,1.94,2.65,6.28"/>
<path class="st7" d="M86.67,42.02c-1.49-4.16,1.05-7.19,0.53-9.41c-1.57-6.8-0.08-9.05-0.08-9.05s2.56-5.1,10.75-3.4
	c8.19,1.7,8.96,6.49,8.96,6.49s7.26-1.55,11.28,5.56c4.02,7.11,0,10.2,0,10.2s11.28-0.15,10.51,17.15
	c4.94,2.63,9.27,16.07,1.55,22.41c1.85,4.79,0.31,16.22-6.18,17.46c0.93,8.65-0.62,16.84-11.59,17.15
	c-5.56,9.58-22.57,7.57-25.27-4.02"/>
<path class="st7" d="M87.04,24.4c0,0-3.97-5.94-12.16-4.24c-8.19,1.7-8.96,6.18-8.96,6.18s-7.26-1.24-11.28,5.87
	c-4.02,7.11,0,10.2,0,10.2s-11.28-0.15-10.51,17.15c-4.94,2.63-9.27,16.07-1.55,22.41c-1.85,4.79-0.31,16.22,6.18,17.46
	c-0.93,8.65,0.62,16.84,11.59,17.15c5.56,9.58,23.99,5.71,26.69-5.88"/>
<path class="st6" d="M124.94,67.69c0,0,2.89-2.13,3.57-7.61"/>
<path class="st6" d="M113.74,74.52c0,0,1.24,4.81-3.32,6.05"/>
<path class="st6" d="M46.6,65.96c0,0,2.36,4.38-1.77,6.67"/>
<path class="st6" d="M103.06,45.77c0,0,4.82-1.23,6.04,3.33"/>
<path class="st6" d="M109.45,93.13c0,0-4.41-2.29-2.29-6.51"/>
<path class="st6" d="M108.23,89.89c0,0,11.23-2.98,15.54,9.03"/>
<path class="st6" d="M48.75,99.69c0,0,0.03-11.62,12.75-12.67"/>
<path class="st6" d="M67.21,88.7c0,0-7.63-0.77-9.73-7.64"/>
<path class="st6" d="M87.13,112.56c-0.34-2.64,0.08-6.59,6.33-4.79"/>
<path class="st6" d="M60.87,117.3c0,0-3.73-5.71,3.24-7.25"/>
<path class="st6" d="M99.44,29.19c0,0,4.38,2.35,2.2,6.54"/>
<path class="st6" d="M93.43,34.02c0,0-5.06,1.91-6.5-2.59"/>
<path class="st6" d="M106.57,26.14c0,0,0.4,4.95-4.3,5.4"/>
<path class="st6" d="M65.06,26.38c0,0,4.97,0.18,4.85,4.91"/>
<path class="st6" d="M61.71,41.68c0,0-3.12,3.87-6.84,0.94"/>
<path class="st6" d="M64.56,97.7c0,0,0.96,4.88-3.66,5.85"/>
<path class="st6" d="M114.56,59.35c0,0-0.32-4.96,4.39-5.32"/>
<path class="st6" d="M59.68,61.52c0,0-0.91-4.89,3.73-5.81"/>
<path class="st6" d="M66.2,72.5c0,0-1.39,4.77-5.94,3.52"/>
<path class="st6" d="M93.4,111.32c0,0-0.35-4.96,4.36-5.35"/>
<path class="st6" d="M102.91,116.67c0,0-4.18-2.68-1.68-6.69"/>
<path class="st6" d="M102.91,101.04c0,0-4.18-2.68-1.68-6.69"/>
<path class="st6" d="M81.93,106.06c0,0-1.52-4.73,2.96-6.23"/>
<path class="st6" d="M64.64,101.11c0,0,11.36,4.08,9.93,12.58"/>
<path class="st6" d="M121.31,66.25c0,0,4.92,0.69,4.32,5.38"/>
<path class="st6" d="M111.02,105.77c0,0,1.05-4.86,5.68-3.92"/>
<path class="st6" d="M130.17,81.96c0,0-8.21,7.88-16.43-2.94"/>
<path class="st6" d="M47.04,70.35c0,0,8.74-7.29,16.18,4.07"/>
<path class="st6" d="M50.75,79.05c0,0-0.99,6.78-8.31,2.97"/>
<path class="st6" d="M107.52,46.08c1.75-2.06,4.78-3.73,10.02-3.71"/>
<path class="st6" d="M43.56,59.95c1.98-1.84,10.85-5.48,16.31-2.68"/>
<path class="st8" d="M103.3,68.73c0,0,0.76-6.14,6.61-5.5"/>
<path class="st8" d="M114.91,66.57c0,0-4.95,3.99-9.9-1.49"/>
<path class="st9" d="M87.55,46.46c0,0-0.09,8.94-11.18,10.61"/>
<path class="st10" d="M85.58,96.45c-0.82-2.9,1.32-4.75,1.06-4.96c-0.85-0.7-1.76-3.73-1.07-6.7c0.41-1.78-0.5-3.42,0.03-5.54
	c0.71-2.81-0.97-4.95-1.66-7.88c-1.23-5.23,1.61-8.38,1.65-9.44c0.1-2.71-0.6-5.05-0.6-7.46"/>
<path class="st11" d="M71.1,61.5c0,0,17.04-2.43,27.92-0.47"/>
<path class="st11" d="M71.99,97.31c0,0,17.04-2.43,27.92-0.47"/>
<path class="st12" d="M74.65,89.74c0,0,12.78-2.1,21.01,0.06"/>
<path class="st9" d="M81.75,82.01c-5.88,0-10.44,1-10.64-7.15c-0.2-7.95,3.59-6.64,9.5-7.16"/>
<path class="st9" d="M102.77,49.34c0,0-5.64,2.72-10.78-5.62"/>
<line class="st9" x1="97.48" y1="43.4" x2="91.55" y2="51.32"/>
<path class="st9" d="M69.35,48.37c0,0,8.28,4.7,12.72-3.78"/>
<line class="st9" x1="75.29" y1="45.08" x2="78.36" y2="53.12"/>
<path class="st6" d="M60.26,115.93c5.56,9.58,22.26,8.07,24.96-3.51c0.01,0.03,3.17-6.43-2.66-9.52"/>
<path class="st6" d="M86.67,42.02c-1.49-4.16,1.05-7.19,0.53-9.41c-1.57-6.8-0.08-9.05-0.08-9.05s2.56-5.1,10.75-3.4"/>
<path class="st6" d="M93.43,34.02c0,0-5.06,1.91-6.5-2.59"/>
<path class="st9" d="M88.23,82.01c5.69,0,10.11,1,10.31-7.15c0.2-7.95-4.62-7.15-10.31-7.15"/>
<path class="st9" d="M77.1,75.33c0,0,9.06-0.49,14.96-0.3"/>
<text transform="matrix(0.583 0 0 0.583 170.0537 114.9416)" class="st13 st14 st15">Where Data Meet Biology</text>
</svg>
