<?xml version="1.0" encoding="utf-8"?>
<!-- Generator: Adobe Illustrator 27.4.0, SVG Export Plug-In . SVG Version: 6.00 Build 0)  -->
<svg version="1.1" id="Layer_1" xmlns="http://www.w3.org/2000/svg" xmlns:xlink="http://www.w3.org/1999/xlink" x="0px" y="0px"
	 viewBox="0 0 643.78 168.42" style="enable-background:new 0 0 643.78 168.42;" xml:space="preserve">
<style type="text/css">
	.st0{fill:#FFFFFF;}
	.st1{font-family:'Didot-Bold';}
	.st2{font-size:87.678px;}
	.st3{fill:#BE1E2D;}
	.st4{font-family:'Georgia';}
	.st5{font-size:166.6991px;}
	.st6{fill:none;stroke:#FFFFFF;stroke-width:2.6525;stroke-linecap:round;stroke-linejoin:round;stroke-miterlimit:10;}
	.st7{fill:#BE1E2D;stroke:#FFFFFF;stroke-width:2.6525;stroke-linecap:round;stroke-linejoin:round;stroke-miterlimit:10;}
	.st8{fill:none;stroke:#FFFFFF;stroke-width:1.9965;stroke-linecap:round;stroke-linejoin:round;stroke-miterlimit:10;}
	.st9{fill:none;stroke:#FFFFFF;stroke-width:2.7834;stroke-linecap:round;stroke-linejoin:round;stroke-miterlimit:10;}
	.st10{fill:none;stroke:#FFFFFF;stroke-width:2.6526;stroke-linecap:round;stroke-linejoin:round;stroke-miterlimit:10;}
	.st11{fill:none;stroke:#FFFFFF;stroke-width:2.8774;stroke-linecap:round;stroke-linejoin:round;stroke-miterlimit:10;}
	.st12{fill:none;stroke:#FFFFFF;stroke-width:2.494;stroke-linecap:round;stroke-linejoin:round;stroke-miterlimit:10;}
	.st13{fill:#BDBEC0;}
	.st14{font-family:'Arial-ItalicMT';}
	.st15{font-size:62.6271px;}
</style>
<text transform="matrix(1 0 0 1 225.5534 77.3279)" class="st0 st1 st2">Dong Lab</text>
<text transform="matrix(-0.6445 0 0 1 215.2721 131.9783)" class="st3 st4 st5">{</text>
<g>
	<text transform="matrix(0.6445 0 0 1 2.2126 132.574)" class="st3 st4 st5">{</text>
</g>
<path class="st6" d="M141.83,136.68c0,0,6.25,2.69,3.69,8.74"/>
<path class="st7" d="M110.09,41.1c-2.08-5.79,1.46-10,0.74-13.1c-2.18-9.46-0.1-12.6-0.1-12.6s3.56-7.1,14.96-4.73
	c11.4,2.37,12.47,9.03,12.47,9.03s10.11-2.15,15.7,7.74c5.59,9.89,0,14.19,0,14.19s15.7-0.22,14.62,23.87
	c6.88,3.66,12.9,22.37,2.15,31.18c2.58,6.67,0.43,22.58-8.6,24.3c1.29,12.04-0.86,23.44-16.13,23.87
	c-7.74,13.33-31.42,10.54-35.17-5.59"/>
<path class="st7" d="M110.61,16.58c0,0-5.53-8.27-16.93-5.91c-11.4,2.37-12.47,8.6-12.47,8.6s-10.11-1.72-15.7,8.17
	c-5.59,9.89,0,14.19,0,14.19s-15.7-0.22-14.62,23.87c-6.88,3.66-12.9,22.37-2.15,31.18c-2.58,6.67-0.43,22.58,8.6,24.3
	c-1.29,12.04,0.86,23.44,16.13,23.87c7.74,13.33,33.39,7.94,37.14-8.18"/>
<path class="st6" d="M163.35,76.83c0,0,4.03-2.97,4.97-10.59"/>
<path class="st6" d="M147.77,86.34c0,0,1.72,6.7-4.62,8.42"/>
<path class="st6" d="M54.33,74.42c0,0,3.28,6.09-2.47,9.28"/>
<path class="st6" d="M132.9,46.32c0,0,6.7-1.71,8.41,4.64"/>
<path class="st6" d="M141.79,112.23c0,0-6.14-3.19-3.19-9.06"/>
<path class="st6" d="M140.09,107.73c0,0,15.63-4.15,21.63,12.57"/>
<path class="st6" d="M57.32,121.36c0,0,0.04-16.17,17.75-17.63"/>
<path class="st6" d="M83.01,106.07c0,0-10.62-1.08-13.54-10.63"/>
<path class="st6" d="M110.73,139.27c-0.47-3.67,0.1-9.16,8.81-6.66"/>
<path class="st6" d="M74.19,145.87c0,0-5.19-7.94,4.51-10.08"/>
<path class="st6" d="M127.87,23.24c0,0,6.1,3.27,3.06,9.1"/>
<path class="st6" d="M119.49,29.97c0,0-7.05,2.66-9.04-3.61"/>
<path class="st6" d="M137.79,18.99c0,0,0.56,6.89-5.99,7.51"/>
<path class="st6" d="M80.01,19.33c0,0,6.91,0.26,6.75,6.83"/>
<path class="st6" d="M75.35,40.63c0,0-4.35,5.38-9.51,1.31"/>
<path class="st6" d="M79.32,118.59c0,0,1.34,6.79-5.09,8.14"/>
<path class="st6" d="M148.91,65.22c0,0-0.44-6.9,6.11-7.41"/>
<path class="st6" d="M72.53,68.24c0,0-1.26-6.8,5.19-8.08"/>
<path class="st6" d="M81.6,83.51c0,0-1.93,6.64-8.27,4.89"/>
<path class="st6" d="M119.45,137.55c0,0-0.48-6.9,6.07-7.45"/>
<path class="st6" d="M132.7,145c0,0-5.82-3.74-2.34-9.31"/>
<path class="st6" d="M132.7,123.24c0,0-5.82-3.74-2.34-9.31"/>
<path class="st6" d="M103.49,130.23c0,0-2.11-6.59,4.13-8.67"/>
<path class="st6" d="M79.43,123.34c0,0,15.8,5.68,13.83,17.5"/>
<path class="st6" d="M158.3,74.83c0,0,6.85,0.96,6.02,7.49"/>
<path class="st6" d="M143.98,129.82c0,0,1.46-6.76,7.9-5.46"/>
<path class="st6" d="M170.63,96.69c0,0-11.43,10.97-22.86-4.09"/>
<path class="st6" d="M54.93,80.53c0,0,12.17-10.15,22.52,5.67"/>
<path class="st6" d="M60.11,92.63c0,0-1.37,9.44-11.56,4.13"/>
<path class="st6" d="M139.1,46.75c2.43-2.87,6.65-5.19,13.95-5.16"/>
<path class="st6" d="M50.09,66.06c2.75-2.57,15.11-7.63,22.7-3.72"/>
<path class="st8" d="M133.23,78.28c0,0,1.06-8.55,9.2-7.65"/>
<path class="st8" d="M149.4,75.26c0,0-6.89,5.55-13.77-2.07"/>
<path class="st9" d="M111.32,47.28c0,0-0.13,12.44-15.56,14.77"/>
<path class="st10" d="M108.58,116.85c-1.14-4.04,1.83-6.61,1.48-6.9c-1.19-0.98-2.45-5.2-1.49-9.32c0.58-2.48-0.7-4.76,0.04-7.7
	c0.99-3.92-1.35-6.89-2.31-10.97c-1.71-7.28,2.24-11.66,2.3-13.14c0.14-3.77-0.84-7.03-0.84-10.39"/>
<path class="st11" d="M88.42,68.21c0,0,23.72-3.38,38.86-0.66"/>
<path class="st11" d="M89.66,118.05c0,0,23.72-3.38,38.86-0.66"/>
<path class="st12" d="M93.36,107.51c0,0,17.79-2.92,29.24,0.08"/>
<path class="st9" d="M103.25,96.75c-8.18,0-14.52,1.39-14.81-9.95c-0.28-11.07,5-9.24,13.22-9.96"/>
<path class="st9" d="M132.5,51.29c0,0-7.85,3.78-15-7.82"/>
<line class="st9" x1="125.13" y1="43.02" x2="116.89" y2="54.05"/>
<path class="st9" d="M85.99,49.94c0,0,11.53,6.54,17.71-5.27"/>
<line class="st9" x1="94.25" y1="45.36" x2="98.52" y2="56.55"/>
<path class="st6" d="M73.34,143.96c7.74,13.33,30.98,11.24,34.73-4.89c0.02,0.04,4.41-8.94-3.71-13.24"/>
<path class="st6" d="M110.09,41.1c-2.08-5.79,1.46-10,0.74-13.1c-2.18-9.46-0.1-12.6-0.1-12.6s3.56-7.1,14.96-4.73"/>
<path class="st6" d="M119.49,29.97c0,0-7.05,2.66-9.04-3.61"/>
<path class="st9" d="M112.27,96.75c7.92,0,14.06,1.39,14.35-9.95c0.27-11.07-6.42-9.95-14.35-9.95"/>
<path class="st9" d="M96.77,87.47c0,0,12.61-0.68,20.82-0.42"/>
<text transform="matrix(0.583 0 0 0.583 221.359 146.6819)" class="st13 st14 st15">Where Data Meet Biology</text>
</svg>
